<?xml version="1.0" encoding="UTF-8"?>
<svg version="1.1" xmlns="http://www.w3.org/2000/svg" width="192" height="171">
<path d="M0 0 C4.33466812 3.33541044 8.1813561 7.09456874 12 11 C12.66515625 11.63292969 13.3303125 12.26585938 14.015625 12.91796875 C26.0007253 25.14601027 31.28297764 43.78423131 31.5 60.5 C31.27402268 79.33777336 24.62650318 95.95364908 12 110 C11.48179687 110.61101562 10.96359375 111.22203125 10.4296875 111.8515625 C-1.13708019 124.58081941 -19.65684764 132.50864041 -36.69140625 133.3359375 C-58.41656298 133.73841903 -76.69460629 127.87527915 -93 113 C-107.14101321 98.74048668 -114.29381197 80.9894652 -114.5 61.0625 C-114.29675443 39.65030412 -106.43254491 21.32922737 -91.1796875 6.203125 C-65.9641017 -15.9865905 -27.90304706 -19.21639612 0 0 Z M-90 20 C-101.10051281 34.23717147 -105.13476927 50.20974633 -104 68 C-102.01501781 83.51895163 -94.23725805 98.10167101 -82.33203125 108.28125 C-67.39827431 119.571086 -50.67220416 124.92789867 -31.98535156 122.3984375 C-17.91929699 120.0183476 -5.82154077 113.29530711 4 103 C4.64324219 102.36449219 5.28648437 101.72898437 5.94921875 101.07421875 C16.76576744 89.74147902 21.01110959 74.42465309 21.05712891 59.09667969 C20.59158667 42.01088175 13.3122481 26.74566677 1 15 C0.36449219 14.35675781 -0.27101563 13.71351562 -0.92578125 13.05078125 C-11.75478657 2.71502255 -27.2522269 -1.99608976 -42 -2.5 C-61.00010118 -1.8299168 -77.17239706 6.07988462 -90 20 Z " fill="#211B1C" transform="translate(143,25)"/>
<path d="M0 0 C0.66 0.33 1.32 0.66 2 1 C1.67 1.53625 1.34 2.0725 1 2.625 C-0.29617187 5.70340819 -0.39874003 7.67716638 0 11 C2.17642983 15.25823228 5.04187985 18.03098895 8.5 21.3125 C14.70607388 27.45722884 17.15804083 32.60841039 17.5 41.375 C17.11173736 52.46636935 12.89049363 61.24837852 5.01171875 68.94140625 C-3.9217119 77 -3.9217119 77 -9 77 C-9.07476562 76.443125 -9.14953125 75.88625 -9.2265625 75.3125 C-10.64872946 67.05835449 -14.71166 62.14737024 -20.625 56.4375 C-26.04577474 51.06480309 -28.22390103 47.28451985 -28.5 39.625 C-28.31937915 33.82506373 -27.31413727 28.84373909 -24 24 C-23.01 23.34 -22.02 22.68 -21 22 C-20.86722656 22.62648438 -20.73445313 23.25296875 -20.59765625 23.8984375 C-20.33275391 25.12433594 -20.33275391 25.12433594 -20.0625 26.375 C-19.88847656 27.18710938 -19.71445313 27.99921875 -19.53515625 28.8359375 C-19.07669307 31.029463 -19.07669307 31.029463 -18 33 C-18.04125 31.865625 -18.0825 30.73125 -18.125 29.5625 C-18.06243477 20.67823741 -15.85340222 13.81192878 -10 7 C-6.90599744 4.25680442 -3.7034692 1.8517346 0 0 Z " fill="#231D1D" transform="translate(107,47)"/>
<path d="M0 0 C0 3.51716303 -0.82445585 4.37121748 -3 7 C-0.702779 8.74271938 1.59866729 10.39911152 4 12 C3.0479279 13.00596297 2.08812654 14.00461563 1.125 15 C0.59132812 15.556875 0.05765625 16.11375 -0.4921875 16.6875 C-2 18 -2 18 -4 18 C-4 17.34 -4 16.68 -4 16 C-3.34 16 -2.68 16 -2 16 C-3.29299694 13.11562221 -4.65941363 11.12780579 -7 9 C-7.33 9.66 -7.66 10.32 -8 11 C-8 8 -8 8 -6.25 5.95703125 C-5.5075 5.24933594 -4.765 4.54164063 -4 3.8125 C-2.88625 2.73935547 -2.88625 2.73935547 -1.75 1.64453125 C-1.1725 1.10183594 -0.595 0.55914062 0 0 Z " fill="#1B1517" transform="translate(150,124)"/>
<path d="M0 0 C1.3303125 0.2475 1.3303125 0.2475 2.6875 0.5 C6.1111913 1.01678359 8.63738103 0.72056121 12 0 C9.08135291 2.2550104 6.08480977 4.26493521 2.9375 6.1875 C2.08027344 6.71730469 1.22304687 7.24710938 0.33984375 7.79296875 C-2 9 -2 9 -5 9 C-3.625 7.5 -3.625 7.5 -2 6 C-1.34 6 -0.68 6 0 6 C-0.2784375 4.7934375 -0.2784375 4.7934375 -0.5625 3.5625 C-0.706875 2.716875 -0.85125 1.87125 -1 1 C-0.67 0.67 -0.34 0.34 0 0 Z " fill="#191515" transform="translate(66,27)"/>
<path d="M0 0 C0.66 0.33 1.32 0.66 2 1 C-1.55015735 5.59506182 -4.47710509 8.76454254 -10 11 C-8.55218207 7.55571735 -6.72305391 5.63869038 -3.875 3.25 C-3.15054688 2.63640625 -2.42609375 2.0228125 -1.6796875 1.390625 C-0.84824219 0.70226562 -0.84824219 0.70226562 0 0 Z " fill="#171314" transform="translate(57,27)"/>
<path d="M0 0 C0.33 0 0.66 0 1 0 C1.33 2.97 1.66 5.94 2 9 C1.34 9 0.68 9 0 9 C-0.66 8.34 -1.32 7.68 -2 7 C-2.66 7 -3.32 7 -4 7 C-2.92598892 4.08482708 -2.22189824 2.22189824 0 0 Z " fill="#161213" transform="translate(85,69)"/>
<path d="M0 0 C0.66 0 1.32 0 2 0 C2.33 0.66 2.66 1.32 3 2 C3.99 2.33 4.98 2.66 6 3 C5.01 3.33 4.02 3.66 3 4 C3.33 4.99 3.66 5.98 4 7 C6.01508358 7.73323796 6.01508358 7.73323796 8 8 C5 10 5 10 2 10 C1.34 6.7 0.68 3.4 0 0 Z " fill="#1A1516" transform="translate(96,114)"/>
<path d="M0 0 C-7.0547046 4.07877462 -7.0547046 4.07877462 -11 3.75 C-11.66 3.5025 -12.32 3.255 -13 3 C-4.03773585 -2.01886792 -4.03773585 -2.01886792 0 0 Z " fill="#140F10" transform="translate(126,144)"/>
<path d="M0 0 C0.33 0.66 0.66 1.32 1 2 C0.22265625 3.7265625 0.22265625 3.7265625 -0.9375 5.625 C-1.618125 6.73875 -2.29875 7.8525 -3 9 C-3.66 7.68 -4.32 6.36 -5 5 C-3.35 3.35 -1.7 1.7 0 0 Z " fill="#191514" transform="translate(166,116)"/>
<path d="M0 0 C1.98 1.65 3.96 3.3 6 5 C3 7 3 7 0.8125 6.625 C0.214375 6.41875 -0.38375 6.2125 -1 6 C-0.34 5.01 0.32 4.02 1 3 C0.67 2.01 0.34 1.02 0 0 Z " fill="#191314" transform="translate(110,64)"/>
<path d="M0 0 C0.66 0.33 1.32 0.66 2 1 C0.515 3.475 0.515 3.475 -1 6 C-1.66 5.34 -2.32 4.68 -3 4 C-3.99 4 -4.98 4 -6 4 C-4.02 2.68 -2.04 1.36 0 0 Z " fill="#100C0D" transform="translate(107,47)"/>
<path d="M0 0 C1.46015291 0.28241641 2.91809793 0.57626614 4.375 0.875 C5.18710938 1.03742187 5.99921875 1.19984375 6.8359375 1.3671875 C9 2 9 2 11 4 C9.68 4.33 8.36 4.66 7 5 C7 4.34 7 3.68 7 3 C5.824375 3.0928125 5.824375 3.0928125 4.625 3.1875 C3.75875 3.125625 2.8925 3.06375 2 3 C1.34 2.01 0.68 1.02 0 0 Z " fill="#191414" transform="translate(119,15)"/>
<path d="M0 0 C0.99 0.66 1.98 1.32 3 2 C1.35 3.98 -0.3 5.96 -2 8 C-2.33 7.01 -2.66 6.02 -3 5 C-2.34 5 -1.68 5 -1 5 C-0.67 3.35 -0.34 1.7 0 0 Z " fill="#1A1516" transform="translate(158,126)"/>
</svg>
